<?xml version="1.0" encoding="UTF-8"?>
<svg width="32" height="32" viewBox="0 0 32 32" fill="none" xmlns="http://www.w3.org/2000/svg">
  <!-- 背景圆 -->
  <circle cx="16" cy="16" r="15" fill="#1a4a9f" stroke="#ffcc33" stroke-width="2"/>
  
  <!-- 经纬线 -->
  <ellipse cx="16" cy="16" rx="12" ry="15" stroke="#ffffff" stroke-width="0.5" stroke-opacity="0.6"/>
  <ellipse cx="16" cy="16" rx="8" ry="15" stroke="#ffffff" stroke-width="0.5" stroke-opacity="0.6"/>
  <ellipse cx="16" cy="16" rx="4" ry="15" stroke="#ffffff" stroke-width="0.5" stroke-opacity="0.6"/>
  
  <ellipse cx="16" cy="16" ry="12" rx="15" stroke="#ffffff" stroke-width="0.5" stroke-opacity="0.6"/>
  <ellipse cx="16" cy="16" ry="8" rx="15" stroke="#ffffff" stroke-width="0.5" stroke-opacity="0.6"/>
  <ellipse cx="16" cy="16" ry="4" rx="15" stroke="#ffffff" stroke-width="0.5" stroke-opacity="0.6"/>
  
  <!-- 大陆轮廓 -->
  <path d="M12 9C13 8 15 7.5 16 10C17 12.5 19 11 20 12C21 13 22 14 20 15C18 16 19 17 18 18C17 19 14 19.5 13 18C12 16.5 10 17 10 15C10 13 11 10 12 9Z" fill="#ffcc33"/>
  <path d="M19 20C20 19 21 21 19 22C17 23 18 23 19 20Z" fill="#ffcc33"/>
  
  <!-- 定位标记 -->
  <path d="M16 14C16.8284 14 17.5 14.6716 17.5 15.5C17.5 16.3284 16.8284 17 16 17C15.1716 17 14.5 16.3284 14.5 15.5C14.5 14.6716 15.1716 14 16 14Z" fill="#ffffff"/>
  <path d="M16 11L16.866 13.5H15.134L16 11Z" fill="#ffffff"/>
</svg> 